<?xml version="1.0" encoding="UTF-8" standalone="no"?>
<svg width="546.44373pt" height="470.96341pt" version="1.1" viewBox="0 0 546.44373 470.96341" id="svg153"
   xmlns="http://www.w3.org/2000/svg" xmlns:svg="http://www.w3.org/2000/svg">
   <defs id="defs71" />
   <path
      d="m 545.46822,453.6012 -223.44,-446.32 C 319.78992,2.8007 315.86802,0 310.82922,0 c -5.0391,0 -9.5195,2.8008 -11.762,6.7188 l -82.32,159.6 -21.84,-38.078 c -2.2383,-3.9219 -6.7188,-6.7188 -11.762,-6.1602 -5.0391,0 -8.9609,3.3594 -11.199,7.2812 L 1.1462172,453.0418 c -1.67969997,3.9219 -1.67969997,8.3984 1.1211,12.32 2.2383,3.9219 6.1602,5.6016 10.6409998,5.6016 H 533.70832 c 4.4805,0 8.3984,-2.2383 10.641,-5.6016 2.2383,-3.3594 2.7969,-7.8398 1.1172,-11.758 z m -390.88,-7.8398 c 0,-38.078 18.48,-71.68 47.602,-92.961 l 5.6016,-3.9219 9.5195,35.281 c 2.2383,5.0391 9.5195,3.9219 10.078,-1.1211 l 14.559,-74.48 c 1.1211,-5.6016 8.3984,-6.1602 10.641,-1.1211 l 11.199,30.801 c 1.6797,5.0391 8.3984,4.4805 10.078,0 l 7.8398,-22.961 c 1.6797,-5.6016 10.078,-4.4805 10.641,1.6797 l 3.9219,73.922 c 0.55859,6.7188 10.078,6.7188 10.641,0.55859 l 7.8398,-58.238 c 0.55859,-6.1602 9.5195,-6.1602 10.641,-0.55859 l 20.16,78.961 c 1.1211,5.6016 9.5195,5.6016 10.641,0 l 6.7188,-31.359 c 12.879,18.48 20.719,40.879 20.719,65.52 z m 178.08,-283.36 c -3.3633,-3.3633 -9.5234,-0.5625 -9.5234,3.918 l -2.8008,67.199 c 0,5.0391 -6.1602,7.2812 -9.5195,3.3594 l -42.559,-28 c -2.2383,-2.8008 -6.7188,-2.2383 -8.3984,0.55859 l -35.84,58.238 c -2.2383,2.8008 -6.7188,2.8008 -8.9609,0 l -24.078,-32.48 c -1.6797,-2.8008 -6.1602,-2.8008 -8.3984,-0.55859 l -62.16,52.641 64.398,-124.88 21.281,37.52 c 2.2383,3.9219 6.7188,6.7188 11.199,6.1602 4.4805,0 8.9609,-2.8008 11.199,-6.7188 l 81.199,-157.36 79.52,168 z"
      id="path73" />
</svg>